<svg width="184" height="281" viewBox="0 0 184 281" fill="none" xmlns="http://www.w3.org/2000/svg">
<path d="M55.9111 66.9271H54.9519C51.466 66.9271 48.6402 64.1012 48.6402 60.6153C48.6402 56.9803 51.7079 54.099 55.3374 54.2994C82.979 55.8255 100.023 55.7951 124.664 54.3327C128.296 54.1172 131.379 57.0081 131.379 60.6464C131.379 64.1082 128.572 66.9271 125.111 66.9271C121.649 66.9271 118.842 69.7334 118.842 73.1952V137.257C118.842 142.955 120.442 148.552 123.613 153.285C150.25 193.042 183.529 227.366 183.529 257.813C183.529 290.11 0 286.253 0 257.813C0 231.055 33.1652 191.863 58.506 153.252C61.6059 148.529 63.1821 142.984 63.1821 137.334V74.1981C63.1821 70.1824 59.9268 66.9271 55.9111 66.9271Z" fill="#0073E6"/>
<path d="M11.5332 253.932C21.8444 227.909 29.401 213.843 48.6401 190.303C79.5492 193.814 105.425 194.001 134.387 190.303C155.837 207.864 172.886 248.668 171.494 253.932C170.696 265.81 62.8669 279.1 11.5332 253.932Z" fill="#00BF7D"/>
<ellipse cx="67.7727" cy="41.3061" rx="6.70994" ry="6.57143" fill="#00BF7D"/>
<path d="M107.074 30.0408C107.074 36.2625 101.924 41.3061 95.571 41.3061C89.2182 41.3061 84.0682 36.2625 84.0682 30.0408C84.0682 23.8192 89.2182 18.7755 95.571 18.7755C101.924 18.7755 107.074 23.8192 107.074 30.0408Z" fill="#00BF7D"/>
<ellipse cx="75.9204" cy="7.97959" rx="8.14779" ry="7.97959" fill="#00BF7D"/>
</svg>
