<svg width="228" height="308" viewBox="0 0 228 308" fill="none" xmlns="http://www.w3.org/2000/svg">
<path d="M90.3178 76.0744L89.3714 75.9185C85.9319 75.3518 83.603 72.1041 84.1698 68.6645C84.7607 65.0778 88.2561 62.7336 91.8048 63.5214C118.83 69.5211 135.653 72.262 160.203 74.8251C163.822 75.2029 166.394 78.5566 165.802 82.1465C165.24 85.5622 162.012 87.8874 158.597 87.3246C155.181 86.7618 151.956 89.0745 151.393 92.4902L140.978 155.7C140.052 161.322 140.72 167.104 143.08 172.291C162.898 215.849 190.154 255.127 185.204 285.169C179.954 317.035 -0.506686 283.393 4.117 255.331C8.46722 228.929 47.563 195.65 78.8438 161.673C82.6703 157.517 85.1271 152.301 86.0455 146.727L96.31 84.4307C96.9628 80.4685 94.28 76.7273 90.3178 76.0744Z" fill="#0073E6"/>
<path d="M16.1278 253.376C30.5326 229.376 40.2755 216.725 63.0856 196.627C93.0127 205.116 118.513 209.507 147.692 210.567C166.002 231.382 176.19 274.414 173.961 279.382C171.242 290.972 62.6868 286.555 16.1278 253.376Z" fill="#00BF7D"/>
<ellipse cx="106.187" cy="52.7227" rx="6.70994" ry="6.57143" transform="rotate(9.35646 106.187 52.7227)" fill="#00BF7D"/>
<path d="M146.797 47.9967C145.785 54.1356 139.884 58.2749 133.615 57.2421C127.347 56.2092 123.086 50.3954 124.097 44.2565C125.109 38.1177 131.01 33.9784 137.278 35.0112C143.547 36.044 147.808 41.8578 146.797 47.9967Z" fill="#00BF7D"/>
<ellipse cx="119.644" cy="21.1642" rx="8.14779" ry="7.97959" transform="rotate(9.35646 119.644 21.1642)" fill="#00BF7D"/>
</svg>
